PathFileType	4	(X/Y/Z)	C:/Users/opensim2020/Desktop/walking_exp_matlab/subject01_walking09_straight_01.trc																																																																																																																															
DataRate	CameraRate	NumFrames	NumMarkers	Units	OrigDataRate	OrigDataStartFrame	OrigNumFrames																																																																																																																											
100	100	7	43	mm	100	1135	485																																																																																																																											
Frame#	Time	LFHD			RFHD			LBHD			RBHD			C7			T10			CLAV			STRN			RBAK			LSHO			LUPA			LELB			LFRM			LWRA			LWRB			LFIN			RSHO			RUPA			RELB			RFRM			RWRA			RWRB			RFIN			LASI			RASI			LPSI			RPSI			LTHI			LKNE			LTIB			LANK			LHEE			LTOE			RTHI			RKNE			RTIB			RANK			RHEE			RTOE			*39			*40			*41			*42		
		X1	Y1	Z1	X2	Y2	Z2	X3	Y3	Z3	X4	Y4	Z4	X5	Y5	Z5	X6	Y6	Z6	X7	Y7	Z7	X8	Y8	Z8	X9	Y9	Z9	X10	Y10	Z10	X11	Y11	Z11	X12	Y12	Z12	X13	Y13	Z13	X14	Y14	Z14	X15	Y15	Z15	X16	Y16	Z16	X17	Y17	Z17	X18	Y18	Z18	X19	Y19	Z19	X20	Y20	Z20	X21	Y21	Z21	X22	Y22	Z22	X23	Y23	Z23	X24	Y24	Z24	X25	Y25	Z25	X26	Y26	Z26	X27	Y27	Z27	X28	Y28	Z28	X29	Y29	Z29	X30	Y30	Z30	X31	Y31	Z31	X32	Y32	Z32	X33	Y33	Z33	X34	Y34	Z34	X35	Y35	Z35	X36	Y36	Z36	X37	Y37	Z37	X38	Y38	Z38	X39	Y39	Z39	X40	Y40	Z40	X41	Y41	Z41	X42	Y42	Z42	X43	Y43	Z43
																																																																																																																																		
364	3.63	663.87067	1674.88184	-1064.3772	674.85718	1682.45459	-950.14435	555.68158	1612.97009	-1058.57056	564.23822	1619.47156	-937.61591	536.73938	1431.14612	-1010.79327	504.95355	1137.32837	-993.57715	679.89496	1362.0282	-1010.26941	724.29028	1207.07031	-1011.48273	484.98602	1237.7981	-926.13434	615.14453	1387.84167	-1171.37378	575.26514	1200.05457	-1245.76294	555.85913	1051.7937	-1238.42627	582.13788	942.30542	-1264.29004	649.86481	819.22205	-1250.86365	593.16162	820.51331	-1271.08789	632.29614	745.32202	-1282.5011	620.25702	1393.84216	-858.20184	575.78363	1194.06775	-749.88184	584.25806	1067.97119	-745.05994	630.20074	955.02942	-719.03949	724.94293	852.8847	-745.85504	684.74738	845.86603	-704.98352	734.97247	777.01837	-708.716	679.57117	931.71338	-1097.38867	671.83521	925.52258	-880.11456	491.22089	945.97211	-1054.98303	488.91324	951.16443	-910.79425	709.00604	611.73047	-1160.71265	729.73932	481.34232	-1142.19727	715.40521	291.85156	-1155.37976	732.91571	73.7733	-1105.13672	694.04352	43.69144	-1050.25842	881.10333	45.03071	-1113.72217	560.28687	601.88446	-831.59387	532.71124	442.73657	-854.03619	414.83432	309.5636	-847.98242	311.71738	128.01279	-894.44257	253.49791	111.38416	-945.16699	424.28918	37.20884	-900.0495	657.74701	1713.66418	-973.28992	1973.08435	1023.38995	-3102.00586	2012.51697	1022.07336	-3140.73535	NaN	NaN	NaN
365	3.64	671.20386	1675.69507	-1066.26831	681.93085	1683.20911	-952.1369	562.63214	1614.44141	-1060.94873	570.98743	1620.83105	-939.8374	543.18842	1431.89905	-1012.78784	511.31964	1137.83984	-995.57104	686.4657	1363.1167	-1012.45764	731.30383	1208.26465	-1013.55969	491.76553	1238.40881	-928.15161	621.6579	1388.77283	-1173.60266	582.55701	1200.87378	-1248.04065	564.10785	1052.53113	-1240.80408	591.38171	943.13422	-1266.39734	659.9054	820.57294	-1252.35522	603.43286	821.48212	-1273.0752	643.23492	746.63232	-1284.32458	626.50299	1394.72168	-860.44525	581.68561	1195.19971	-751.84479	589.84131	1069.01392	-747.42767	635.00934	955.79285	-721.15662	729.01123	852.93762	-747.81134	689.00049	846.42755	-706.7691	738.60297	777.05847	-710.55194	687.29968	932.40015	-1099.2926	679.26782	926.35596	-882.18427	498.97293	946.96234	-1056.90784	496.685	952.21704	-912.51538	714.72046	611.89142	-1162.32788	735.15729	481.44913	-1143.31946	719.18463	291.93564	-1156.02661	733.57593	73.9819	-1105.07703	694.15613	43.76687	-1050.15759	881.63702	44.21452	-1113.35425	569.52936	602.24792	-833.07288	542.44379	443.03729	-854.66498	421.87161	312.51019	-848.76831	315.69791	132.31342	-894.25574	257.40784	117.35458	-945.91992	424.86276	37.37912	-899.89825	664.81354	1714.41467	-975.33496	1973.12646	1023.61719	-3101.80469	2012.37732	1021.89606	-3140.71021	NaN	NaN	NaN
366	3.65	678.42749	1676.55945	-1068.3385	688.97626	1683.95398	-954.11865	569.53088	1615.83118	-1063.24487	577.65991	1622.10461	-942.06787	549.65063	1432.58386	-1015.32013	518.51282	1138.47681	-997.57861	692.94763	1364.19934	-1014.56726	738.22095	1209.50037	-1015.62164	498.48764	1239.03613	-930.18048	628.19592	1389.70691	-1175.76184	589.82214	1201.79236	-1250.34644	572.38934	1053.28918	-1243.23083	600.67914	943.98071	-1268.56616	670.17902	822.07251	-1253.82837	613.82715	822.51031	-1275.06897	654.40839	748.01324	-1285.75012	632.81433	1395.71594	-862.55359	587.61975	1196.422	-753.86047	595.3905	1070.02271	-749.7644	639.77228	956.55389	-723.22754	733.33051	853.1944	-749.73181	692.8811	846.78058	-708.7572	742.1131	777.02649	-712.44922	694.92999	933.05475	-1101.25366	686.64972	927.34344	-884.3363	506.89404	947.83264	-1058.89868	504.22424	953.06592	-914.39392	720.34631	611.8902	-1163.40564	740.12262	481.41006	-1144.14722	722.64301	291.97675	-1156.4552	734.25507	74.19794	-1105.04016	694.29169	43.86952	-1050.2594	882.30768	43.57068	-1113.13879	579.09088	602.48724	-834.52185	553.2088	443.21829	-854.9859	429.22516	315.45117	-849.61194	320.12463	136.89555	-894.76849	262.3717	123.59664	-946.7785	425.59595	37.51064	-900.37573	672.28912	1715.45044	-977.24261	1973.14502	1023.55664	-3101.88647	2012.50439	1021.90253	-3140.84644	NaN	NaN	NaN
367	3.66	685.63147	1677.3584	-1070.22009	695.86328	1684.73254	-955.99133	576.44257	1617.08972	-1065.41882	584.29944	1623.29993	-944.33179	556.16748	1433.34131	-1017.25635	525.49103	1139.10583	-999.71484	699.41498	1365.25708	-1016.6532	745.09045	1210.68921	-1017.62152	505.11548	1239.76416	-932.31714	634.82965	1390.64893	-1177.81018	597.14825	1202.73987	-1252.73975	580.66528	1053.95313	-1245.70935	610.09546	944.89264	-1270.77014	680.65778	823.74792	-1255.51563	624.409	823.55029	-1276.91431	665.62274	749.43646	-1287.44568	639.09766	1396.67859	-864.77374	593.54993	1197.6095	-755.89874	600.89551	1071.0769	-751.99512	644.5874	957.39124	-725.32007	737.40692	853.17725	-751.58478	697.09369	847.25696	-710.64514	745.63818	777.03589	-714.34796	702.42596	933.77466	-1103.24365	693.80646	928.39709	-886.49713	514.11981	948.94769	-1060.97949	511.42023	954.05988	-916.40576	726.25995	611.91754	-1164.61401	744.96191	481.30646	-1145.0813	725.62061	291.96341	-1156.79773	734.72589	74.25477	-1104.97864	694.51917	44.05978	-1050.2395	882.92334	43.00571	-1112.94434	589.27155	602.72888	-835.59497	564.71027	443.20499	-854.96899	438.00922	318.21887	-850.388	325.81607	141.51888	-895.16742	268.06549	130.26848	-948.00159	426.5173	37.66148	-900.69672	679.1734	1716.06738	-979.14514	1973.11975	1023.42169	-3101.81543	2012.57214	1022.11237	-3140.70288	NaN	NaN	NaN
368	3.67	692.71741	1678.17078	-1072.22412	702.76874	1685.43628	-957.77429	583.37128	1618.22156	-1067.59521	590.94055	1624.37769	-946.46808	562.55017	1434.0199	-1019.62091	532.414	1139.79761	-1002.02203	705.91534	1366.24744	-1018.63251	751.84247	1211.75183	-1019.57367	511.68173	1240.36792	-934.51105	641.46503	1391.54626	-1179.90027	604.53064	1203.70984	-1255.1626	589.04858	1054.77942	-1248.30164	619.61926	945.84784	-1272.98108	690.97211	825.25702	-1256.60095	635.06573	824.625	-1278.85962	677.1311	750.97363	-1289.01221	645.3634	1397.58386	-866.77057	599.26733	1198.63147	-758.00446	606.2829	1072.13684	-754.23633	649.37006	958.16461	-727.34045	741.4043	853.25696	-753.513	701.01007	847.62482	-712.45074	749.17676	777.05554	-716.2832	709.74249	934.45624	-1105.16736	700.88904	929.52588	-888.62195	521.40552	949.78784	-1063.03308	518.50598	954.95099	-918.40393	730.90814	611.86444	-1165.6123	749.48944	481.12564	-1146.14575	728.11053	291.82233	-1157.15674	734.97699	74.10445	-1105.09302	694.5885	44.05307	-1050.29541	883.30817	42.46308	-1112.81653	599.94312	602.78534	-836.43048	576.76123	443.16486	-854.64771	447.11996	320.8125	-851.20819	331.72742	146.60515	-895.70142	274.57837	137.0416	-949.32233	427.57535	37.91497	-901.1709	686.42413	1717.07056	-981.10907	1973.14099	1023.25446	-3101.91455	2012.53943	1022.12109	-3140.7251	NaN	NaN	NaN
369	3.68	699.77368	1678.84534	-1073.96106	709.48047	1686.07288	-959.67267	590.21185	1619.22375	-1069.77832	597.45966	1625.33948	-948.61804	568.94574	1434.67139	-1021.67017	539.12701	1140.422	-1004.31836	712.3562	1367.14905	-1020.61041	758.49664	1212.72742	-1021.49298	518.19666	1241.04749	-936.7619	648.18591	1392.42957	-1181.81763	612.01123	1204.65759	-1257.53394	597.40747	1055.51196	-1250.87683	629.24994	946.77283	-1275.21204	701.63062	826.9281	-1258.04419	645.9339	825.71051	-1280.90149	688.81097	752.4295	-1290.4054	651.63812	1398.47168	-868.9635	604.82507	1199.51245	-760.1087	611.7923	1073.07996	-756.44263	653.99493	958.91559	-729.42963	745.47333	853.3028	-755.45129	705.08978	848.17944	-714.2865	752.66388	777.09351	-718.19836	716.92615	935.14197	-1107.12549	707.76447	930.63141	-890.71503	528.60364	950.53101	-1065.08069	525.37585	955.59827	-920.5849	735.96118	611.71484	-1166.75378	753.69885	480.93637	-1147.3136	730.20636	291.58545	-1157.65454	735.17908	74.06928	-1104.89246	694.59479	43.90756	-1050.23645	883.93414	42.12876	-1112.75659	610.97845	602.75873	-837.05945	589.44489	443.0379	-854.25238	457.23618	323.30963	-851.67377	338.384	151.41235	-896.42944	282.04559	144.0285	-950.93427	428.79178	38.26927	-901.92175	693.09906	1717.58826	-982.94293	1973.13672	1023.44604	-3101.92188	2012.63879	1022.13794	-3140.67822	NaN	NaN	NaN
370	3.69	706.77777	1679.48267	-1075.91272	716.1861	1686.63953	-961.39178	597.05969	1620.13745	-1071.89148	603.98315	1626.18225	-950.70465	575.30634	1435.32495	-1023.88092	545.78937	1141.09949	-1006.75714	718.72528	1367.93005	-1022.4389	765.07642	1213.60303	-1023.34863	524.57104	1241.61719	-939.07764	654.92957	1393.28748	-1183.78625	619.67615	1205.56628	-1259.86768	605.79199	1056.27612	-1253.41528	638.90924	947.68018	-1277.45923	712.24591	828.58331	-1259.53479	656.86603	826.86127	-1283.02856	700.60748	753.99518	-1292.06189	657.79083	1399.2677	-870.96979	610.68604	1200.48059	-762.39136	617.20776	1073.9707	-758.6485	658.61169	959.60767	-731.39386	749.23212	853.30396	-757.49084	709.06329	848.49152	-716.15875	756.08923	777.01123	-720.12494	723.91272	935.79382	-1109.07446	714.34045	931.68658	-892.7132	535.53235	951.19043	-1067.23938	531.90118	955.8902	-922.71326	741.10925	611.88678	-1168.14026	757.5434	480.65826	-1148.63904	731.95197	291.31195	-1158.25085	735.17175	73.80247	-1104.87476	694.62512	44.02743	-1050.30334	884.28729	41.72168	-1112.88513	622.47455	602.78302	-837.37701	602.23364	442.94638	-853.86743	468.28271	325.63614	-852.41913	345.79404	156.49083	-897.22888	289.91763	151.36775	-952.37701	430.51355	39.08415	-902.58136	700.24243	1718.37012	-984.75659	1973.10925	1023.27374	-3101.85205	2012.51379	1021.98987	-3140.73999	NaN	NaN	NaN
